<svg xmlns="http://www.w3.org/2000/svg" viewBox="0 0 1800 700" width="1800" height="700" role="img" aria-labelledby="t06 d06">
  <title id="t06">Ninety minutes: the shape of the session</title>
  <desc id="d06">A horizontal timeline from 0 to 90 minutes, 14:55 to 16:25, in two lanes. The upper lane, ON STAGE, holds the eight blocks of the deck: The case 0 to 8, Setup 8 to 15, Design in 15 to 25, Plan then build 25 to 40, The verifier 40 to 55, The loop and workflows 55 to 70, Ship it 70 to 82, Honesty 82 to 90. The lower lane, ON YOUR MACHINE, alternates solid blocks where you are typing with dashed blocks where the agent works alone while the talk continues: prompt 01 during setup; prompt 02 reading the .fig through Design in; sprint 1, reading what 02 found and building with 03; prompt 04 writing the checker through the verifier talk; sprint 2, the loop from prompt 05, through the loop and workflows talk; and sprint 3, deploying with 06. A row of markers shows where each prompt, 01 to 07, is pasted. The eight-minute buffer sits at the end.</desc>

  <defs>
    <pattern id="sprint2hatch" width="16" height="16" patternUnits="userSpaceOnUse" patternTransform="rotate(45)">
      <rect x="0" y="0" width="16" height="16" fill="#10B981"/>
      <rect x="0" y="0" width="6" height="16" fill="#0A0A0A" opacity="0.10"/>
    </pattern>
  </defs>

  <rect x="0" y="0" width="1800" height="700" fill="#0A0A0A"/>

  <g font-family="Inter, system-ui, -apple-system, 'Segoe UI', Helvetica, Arial, sans-serif">

    <text x="60" y="72" font-size="38" font-weight="700" fill="#FFFFFF">Ninety minutes</text>
    <text x="60" y="110" font-size="22" fill="#9CA3AF">14:55 to 16:25. Eight blocks, three sprints, and three stretches where the machine works while the talk continues.</text>

    <line x1="180" y1="176" x2="1770" y2="176" stroke="#9CA3AF" stroke-width="1.5"/>
    <g stroke="#9CA3AF" stroke-width="1.5">
      <line x1="180" y1="176" x2="180" y2="188"/>
      <line x1="357" y1="176" x2="357" y2="188"/>
      <line x1="533" y1="176" x2="533" y2="188"/>
      <line x1="710" y1="176" x2="710" y2="188"/>
      <line x1="887" y1="176" x2="887" y2="188"/>
      <line x1="1063" y1="176" x2="1063" y2="188"/>
      <line x1="1240" y1="176" x2="1240" y2="188"/>
      <line x1="1417" y1="176" x2="1417" y2="188"/>
      <line x1="1593" y1="176" x2="1593" y2="188"/>
      <line x1="1770" y1="176" x2="1770" y2="188"/>
    </g>
    <g font-size="20" fill="#9CA3AF" text-anchor="middle">
      <text x="180" y="160">0</text>
      <text x="357" y="160">10</text>
      <text x="533" y="160">20</text>
      <text x="710" y="160">30</text>
      <text x="887" y="160">40</text>
      <text x="1063" y="160">50</text>
      <text x="1240" y="160">60</text>
      <text x="1417" y="160">70</text>
      <text x="1593" y="160">80</text>
      <text x="1782" y="160" text-anchor="end">90 min</text>
    </g>

    <text x="60" y="248" font-size="18" font-weight="700" fill="#FFFFFF">ON STAGE</text>
    <text x="60" y="272" font-size="17" fill="#9CA3AF">the room</text>

    <text x="60" y="412" font-size="18" font-weight="700" fill="#FFFFFF">ON YOUR</text>
    <text x="60" y="434" font-size="18" font-weight="700" fill="#FFFFFF">MACHINE</text>
    <text x="60" y="458" font-size="17" fill="#9CA3AF">your screen</text>

    <g>
      <rect x="180" y="210" width="141" height="110" rx="6" fill="#161616" stroke="#9CA3AF" stroke-width="2"/>
      <text x="250" y="272" font-size="20" font-weight="700" fill="#FFFFFF" text-anchor="middle">The case</text>

      <rect x="321" y="210" width="124" height="110" rx="6" fill="#161616" stroke="#9CA3AF" stroke-width="2"/>
      <text x="383" y="272" font-size="20" font-weight="700" fill="#FFFFFF" text-anchor="middle">Setup</text>

      <rect x="445" y="210" width="177" height="110" rx="6" fill="#161616" stroke="#9CA3AF" stroke-width="2"/>
      <text x="533" y="272" font-size="20" font-weight="700" fill="#FFFFFF" text-anchor="middle">Design in</text>

      <rect x="622" y="210" width="265" height="110" rx="6" fill="#161616" stroke="#9CA3AF" stroke-width="2"/>
      <text x="754" y="264" font-size="20" font-weight="700" fill="#FFFFFF" text-anchor="middle">Plan, then build</text>
      <text x="754" y="292" font-size="18" fill="#9CA3AF" text-anchor="middle">then on the floor</text>

      <rect x="887" y="210" width="265" height="110" rx="6" fill="#161616" stroke="#9CA3AF" stroke-width="2"/>
      <text x="1019" y="264" font-size="20" font-weight="700" fill="#FFFFFF" text-anchor="middle">The verifier</text>
      <text x="1019" y="292" font-size="18" fill="#9CA3AF" text-anchor="middle">live contrast repair</text>

      <rect x="1152" y="210" width="265" height="110" rx="6" fill="#161616" stroke="#9CA3AF" stroke-width="2"/>
      <text x="1284" y="264" font-size="20" font-weight="700" fill="#FFFFFF" text-anchor="middle">The loop and</text>
      <text x="1284" y="292" font-size="20" font-weight="700" fill="#FFFFFF" text-anchor="middle">workflows</text>

      <rect x="1417" y="210" width="212" height="110" rx="6" fill="#161616" stroke="#9CA3AF" stroke-width="2"/>
      <text x="1523" y="272" font-size="20" font-weight="700" fill="#FFFFFF" text-anchor="middle">Ship it</text>

      <rect x="1629" y="210" width="141" height="110" rx="6" fill="#161616" stroke="#9CA3AF" stroke-width="2"/>
      <text x="1699" y="272" font-size="20" font-weight="700" fill="#FFFFFF" text-anchor="middle">Honesty</text>
    </g>

    <g>
      <rect x="323" y="380" width="120" height="110" rx="6" fill="#10B981"/>
      <text x="383" y="426" font-size="22" font-weight="700" fill="#0A0A0A" text-anchor="middle">01</text>
      <text x="383" y="456" font-size="18" fill="#0A0A0A" text-anchor="middle">start</text>

      <rect x="447" y="380" width="173" height="110" rx="6" fill="#161616" stroke="#10B981" stroke-width="2" stroke-dasharray="8 6"/>
      <text x="534" y="426" font-size="22" font-weight="700" fill="#34D399" text-anchor="middle">02</text>
      <text x="534" y="456" font-size="18" fill="#D1D5DB" text-anchor="middle">reads the .fig</text>

      <rect x="624" y="380" width="261" height="110" rx="6" fill="#10B981"/>
      <text x="755" y="418" font-size="22" font-weight="700" fill="#0A0A0A" text-anchor="middle">SPRINT 1</text>
      <text x="755" y="446" font-size="18" fill="#0A0A0A" text-anchor="middle">read what 02 found,</text>
      <text x="755" y="472" font-size="18" fill="#0A0A0A" text-anchor="middle">then 03 builds</text>

      <rect x="889" y="380" width="261" height="110" rx="6" fill="#161616" stroke="#10B981" stroke-width="2" stroke-dasharray="8 6"/>
      <text x="1020" y="418" font-size="22" font-weight="700" fill="#34D399" text-anchor="middle">04</text>
      <text x="1020" y="446" font-size="18" fill="#D1D5DB" text-anchor="middle">writes the checker</text>
      <text x="1020" y="472" font-size="18" fill="#D1D5DB" text-anchor="middle">while the talk goes on</text>

      <rect x="1154" y="380" width="261" height="110" rx="6" fill="#161616" stroke="#10B981" stroke-width="2" stroke-dasharray="8 6"/>
      <text x="1285" y="418" font-size="22" font-weight="700" fill="#34D399" text-anchor="middle">SPRINT 2 · 05</text>
      <text x="1285" y="446" font-size="18" fill="#D1D5DB" text-anchor="middle">the loop runs alone</text>
      <text x="1285" y="472" font-size="18" fill="#D1D5DB" text-anchor="middle">while the talk goes on</text>

      <rect x="1419" y="380" width="208" height="110" rx="6" fill="#10B981"/>
      <text x="1523" y="418" font-size="22" font-weight="700" fill="#0A0A0A" text-anchor="middle">SPRINT 3</text>
      <text x="1523" y="446" font-size="18" fill="#0A0A0A" text-anchor="middle">06 deploys,</text>
      <text x="1523" y="472" font-size="18" fill="#0A0A0A" text-anchor="middle">URL on the board</text>
    </g>

    <text x="60" y="566" font-size="17" fill="#9CA3AF">prompts</text>
    <g stroke="#9CA3AF" stroke-width="2">
      <line x1="321" y1="494" x2="321" y2="546"/>
      <line x1="445" y1="494" x2="445" y2="546"/>
      <line x1="710" y1="494" x2="710" y2="546"/>
      <line x1="887" y1="494" x2="887" y2="546"/>
      <line x1="1152" y1="494" x2="1152" y2="546"/>
      <line x1="1417" y1="494" x2="1417" y2="546"/>
      <line x1="1540" y1="494" x2="1540" y2="546"/>
    </g>
    <g font-size="18" font-weight="700" fill="#FFFFFF" text-anchor="middle" font-family="'JetBrains Mono', ui-monospace, SFMono-Regular, Menlo, Consolas, monospace">
      <text x="321" y="570">01</text>
      <text x="445" y="570">02</text>
      <text x="710" y="570">03</text>
      <text x="887" y="570">04</text>
      <text x="1152" y="570">05</text>
      <text x="1417" y="570">06</text>
      <text x="1540" y="570">07</text>
    </g>

    <path d="M1629 336 v10 h141 v-10" fill="none" stroke="#9CA3AF" stroke-width="2"/>
    <text x="1770" y="376" font-size="18" fill="#9CA3AF" text-anchor="end">the buffer lives here</text>

    <text x="60" y="632" font-size="22" fill="#9CA3AF">Solid: you are typing. Dashed: the agent works alone while the talk goes on — reading the .fig, writing the checker, running the loop.</text>
    <text x="60" y="662" font-size="22" fill="#9CA3AF">Every prompt stands alone, so nobody stays stuck for more than one block. 08 is the whole run as one message, to take home.</text>
  </g>
</svg>
